<?xml version="1.0" encoding="UTF-8" standalone="no"?>
<!DOCTYPE svg PUBLIC "-//W3C//DTD SVG 1.1//EN" "http://www.w3.org/Graphics/SVG/1.1/DTD/svg11.dtd">
<svg width="100%" height="100%" viewBox="0 0 365 330" version="1.1" xmlns="http://www.w3.org/2000/svg" xmlns:xlink="http://www.w3.org/1999/xlink" xml:space="preserve" xmlns:serif="http://www.serif.com/" style="fill-rule:evenodd;clip-rule:evenodd;stroke-linejoin:round;stroke-miterlimit:2;">
    <g transform="matrix(1,0,0,1,-779,-261)">
        <g transform="matrix(1,0,0,1,669.686,0)">
            <g transform="matrix(1,0,0,1,0,11.002)">
                <path d="M109.745,344.578L132.991,381.483C132.991,381.483 145.854,382.561 139.042,360.823C144.921,349.712 156.432,334.754 178.905,317.487L178.905,563.339C169.216,566.068 156.415,571.201 165.143,579.944L231.924,579.944C240.734,571.119 226.85,565.809 218.388,563.339L218.388,505.338C218.388,505.338 264.173,523.312 313.532,523.312C356.901,523.312 396.361,510.411 425.709,487.098C455.061,463.913 473.969,429.312 473.857,389.744C473.94,350.905 457.324,315.26 428.706,290.357C400.11,265.365 360.07,250.943 313.532,250.943C192.242,250.943 109.745,344.578 109.745,344.578ZM218.388,482.645L218.388,298.209C241.552,281.742 279.118,271.603 309.458,271.664C346.314,271.692 375.257,285.621 394.821,306.762C414.365,328.029 425.029,356.281 425.129,389.125C425.008,421.123 413.608,447.475 393.308,467.692C373.016,487.739 343.503,500.409 309.458,500.387L309.284,500.387C271.377,500.387 239.472,493.034 218.388,482.645Z" style="fill:white;fill-rule:nonzero;"/>
            </g>
        </g>
    </g>
</svg>
