<?xml version="1.0" encoding="UTF-8"?>
<svg width="200px" height="200px" viewBox="0 0 200 200" version="1.1" xmlns="http://www.w3.org/2000/svg" xmlns:xlink="http://www.w3.org/1999/xlink">
    <!-- Generator: sketchtool 59 (101010) - https://sketch.com -->
    <title>1BC87183-F51B-4817-B53B-6D9786E5B663@1.00x</title>
    <desc>Created with sketchtool.</desc>
    <defs>
        <path d="M45.1453008,0.938198256 L4.42041441,21.7822054 C1.97908694,23.0317375 -4.26325641e-14,26.2738477 -4.26325641e-14,29.0252371 L-4.26325641e-14,69.8020548 C-4.26325641e-14,72.5527388 1.97362159,75.7927573 4.42041441,77.0450865 L46.9183704,98.7965948 C48.3804585,99.5449278 48.3772409,100.759862 46.9183704,101.506548 L4.42041441,123.258057 C1.97908694,124.507588 1.97362159,126.530682 4.42041441,127.783012 L45.1453008,148.627019 C47.5866282,149.876551 51.5392971,149.879348 53.9860408,148.627019 L94.7101092,127.783012 C97.1513875,126.53348 99.1304348,123.29137 99.1304348,120.53998 L99.1304348,79.7631627 C99.1304348,77.0124787 97.1568528,73.7724602 94.7101092,72.520131 L52.2130069,50.7686227 C50.750948,50.0202897 50.7541655,48.8053554 52.2130069,48.0586692 L94.7101092,26.307161 C97.1513875,25.0576291 97.1568528,23.0345348 94.7101092,21.7822054 L53.9860408,0.938198256 C51.5447624,-0.311333709 47.5920936,-0.314131013 45.1453008,0.938198256 Z" id="path-1"></path>
    </defs>
    <g id="Tile" stroke="none" stroke-width="1" fill="none" fill-rule="evenodd">
        <g id="Scrapbox" transform="translate(-250.000000, -613.000000)">
            <g id="Scrapbox-circle" transform="translate(250.000000, 613.000000)">
                <circle id="circle" fill="#FFFFFF" cx="100" cy="100" r="100"></circle>
                <g id="Rectangle" stroke-width="1" transform="translate(50.434783, 25.217391)">
                    <mask id="mask-2" fill="white">
                        <use xlink:href="#path-1"></use>
                    </mask>
                    <use id="Mask" fill="#05EC40" xlink:href="#path-1"></use>
                    <polygon fill="#00B52E" mask="url(#mask-2)" points="49.5652174 2.45845721e-14 99.1304348 2.45845721e-14 99.1304348 149.565217 49.5652174 149.565217"></polygon>
                    <path d="M51.3043478,125.217391 L98.039356,101.348626 C99.4957297,100.604818 99.4925248,99.3971423 98.039356,98.6548632 L51.3043478,74.7826087 L51.3043478,125.217391 Z" id="Mask-Copy" fill="#004D3F" mask="url(#mask-2)" transform="translate(75.217391, 100.000000) scale(-1, 1) translate(-75.217391, -100.000000) "></path>
                    <path d="M0,73.9130435 L46.7350079,50.0442777 C48.1913821,49.3004701 48.188177,48.0927945 46.7350079,47.3505153 L0,23.4782609 L0,73.9130435 Z" id="Mask" fill="#FCFF19" mask="url(#mask-2)"></path>
                </g>
            </g>
        </g>
    </g>
</svg>
